<svg id="Layer_1" data-name="Layer 1" xmlns="http://www.w3.org/2000/svg" viewBox="0 0 270.45 67.79"><defs><style>.cls-1{fill:#00a651;}.cls-2{fill:#ffb114;}.cls-3{fill:#f0282d;}.cls-4{fill:#0078d0;}</style></defs><path class="cls-1" d="M92.48,25.68A17.73,17.73,0,0,1,110,40.75a17.69,17.69,0,0,0,3.65.78,21.26,21.26,0,0,0-21.17-19.4c-.62,0-1.24,0-1.84.08,0,.56.06,1.12.06,1.69s0,1.26-.08,1.87q.91-.09,1.86-.09m17.68,18.81A17.72,17.72,0,1,1,87,26.55a17.77,17.77,0,0,0,.2-2.65c0-.36,0-.73,0-1.09a21.27,21.27,0,1,0,26.54,22.28,21.27,21.27,0,0,1-3.51-.6"/><path class="cls-2" d="M44.55,25.77c.05-.61.08-1.24.08-1.86s0-1.14-.06-1.7c.6-.05,1.22-.08,1.84-.08a21.27,21.27,0,0,1,21.18,19.4,18.31,18.31,0,0,1-3.66-.78A17.73,17.73,0,0,0,46.41,25.67c-.63,0-1.25,0-1.86.1m23,19.32A21.26,21.26,0,1,1,41.06,22.81c0,.36,0,.72,0,1.1a17.74,17.74,0,0,1-.2,2.64,17.72,17.72,0,1,0,23.2,17.94,21.27,21.27,0,0,0,3.51.6"/><path class="cls-3" d="M136.77,23.9a21.26,21.26,0,0,1-42.44,1.87,17.64,17.64,0,0,1,3.66.78,17.75,17.75,0,1,0-.16-3.74,21.39,21.39,0,0,0-3.52-.6,21.26,21.26,0,0,1,42.46,1.69"/><path d="M69.44,2.64a21.27,21.27,0,0,0-21.2,19.57,22.7,22.7,0,0,1,3.52.6A17.72,17.72,0,1,1,75,40.75a17.74,17.74,0,0,0-.2,2.64c0,.37,0,.74,0,1.1A21.27,21.27,0,0,0,69.44,2.64m0,39A17.74,17.74,0,0,1,51.91,26.55a17.37,17.37,0,0,0-3.66-.78,21.27,21.27,0,0,0,21.19,19.4c.62,0,1.24,0,1.84-.08,0-.56-.07-1.12-.07-1.7s0-1.25.09-1.86c-.61.06-1.24.1-1.86.1"/><path class="cls-4" d="M44.63,23.9A21.26,21.26,0,1,0,23.37,45.17c.62,0,1.23,0,1.84-.08,0-.56-.07-1.12-.07-1.69s0-1.26.08-1.87c-.61.06-1.23.1-1.85.1a17.73,17.73,0,1,1,5.51-.88,19.22,19.22,0,0,0-.19,2.65c0,.36,0,.73,0,1.09A21.26,21.26,0,0,0,44.63,23.9"/><path d="M167.56,30.82a7.07,7.07,0,0,1-5.34-1.89,7.63,7.63,0,0,1-1.8-5.49V9.62a7.65,7.65,0,0,1,1.8-5.49,8.49,8.49,0,0,1,10.68,0,7.65,7.65,0,0,1,1.81,5.49V23.44a7.63,7.63,0,0,1-1.81,5.49A7,7,0,0,1,167.56,30.82Zm0-4.37a2.07,2.07,0,0,0,1.83-.79,4.54,4.54,0,0,0,.55-2.54V9.82a4.52,4.52,0,0,0-.55-2.56,2.55,2.55,0,0,0-3.65,0,4.51,4.51,0,0,0-.56,2.56v13.3a4.53,4.53,0,0,0,.56,2.54A2.05,2.05,0,0,0,167.56,26.45Z"/><path d="M178.28,30.42V2.64H183v23.5h6.75v4.28Z"/><path d="M193,30.42v-9.6L187.81,2.64h5l2.7,12.7,2.7-12.7h4.88l-5.16,18.18v9.6Z"/><path d="M205,30.42V2.64h6.83l3.29,17.15,3.34-17.15h6.82V30.42H221V8.71l-4.37,21.71h-2.82L209.4,8.71V30.42Z"/><path d="M229.09,30.42V2.64h7.1a7.92,7.92,0,0,1,5.28,1.53,5.6,5.6,0,0,1,1.79,4.5v6a5.6,5.6,0,0,1-1.79,4.5,7.92,7.92,0,0,1-5.28,1.53h-2.34v9.68Zm6.74-13.89a2.63,2.63,0,0,0,2-.71,3.07,3.07,0,0,0,.65-2.15V9.62c0-1.9-.88-2.85-2.66-2.85h-2v9.76Z"/><path d="M246.23,30.42V2.64H251V30.42Z"/><path d="M261.67,30.82a7,7,0,0,1-5.3-1.87,7.63,7.63,0,0,1-1.8-5.51V9.62a7.63,7.63,0,0,1,1.8-5.51,7,7,0,0,1,5.3-1.87,6.86,6.86,0,0,1,5.24,1.89,7.69,7.69,0,0,1,1.79,5.49V13.2h-4.76V9.82a4.62,4.62,0,0,0-.54-2.56,2,2,0,0,0-1.77-.77,2,2,0,0,0-1.76.77,4.62,4.62,0,0,0-.54,2.56v13.3a4.62,4.62,0,0,0,.54,2.56,2,2,0,0,0,1.76.77,2,2,0,0,0,1.77-.77,4.62,4.62,0,0,0,.54-2.56V19.35h4.76v4.09a7.67,7.67,0,0,1-1.79,5.49A6.86,6.86,0,0,1,261.67,30.82Z"/><path d="M167.48,64.84a7.53,7.53,0,0,1-5.24-1.7,6.16,6.16,0,0,1-1.86-4.77V54.68H165v3.18c0,1.85.82,2.78,2.46,2.78a2.29,2.29,0,0,0,1.79-.66,2.88,2.88,0,0,0,.59-2v-.52a5.1,5.1,0,0,0-.69-2.56,6.69,6.69,0,0,0-2-2.12L164.58,51a10.15,10.15,0,0,1-2.89-3.14,7.53,7.53,0,0,1-1.07-3.92V42.65a6.14,6.14,0,0,1,1.78-4.72,8.49,8.49,0,0,1,10.14,0,6.1,6.1,0,0,1,1.81,4.7v3h-4.53V43a3.12,3.12,0,0,0-.55-2,2.09,2.09,0,0,0-1.71-.68,2.06,2.06,0,0,0-1.67.66,3,3,0,0,0-.55,2v.52a3.94,3.94,0,0,0,.61,2.08,5.71,5.71,0,0,0,1.73,1.77l2.58,1.79a10.25,10.25,0,0,1,3.22,3.49,9.33,9.33,0,0,1,1.11,4.56v1.23a6.2,6.2,0,0,1-1.83,4.81A7.58,7.58,0,0,1,167.48,64.84Z"/><path d="M177.68,64.45V36.66h4.77V48.05h4.76V36.66H192V64.45h-4.76v-12h-4.76v12Z"/><path d="M202.69,64.84A7,7,0,0,1,197.35,63a7.67,7.67,0,0,1-1.8-5.5V43.65a7.67,7.67,0,0,1,1.8-5.5,8.49,8.49,0,0,1,10.68,0,7.67,7.67,0,0,1,1.81,5.5V57.46A7.67,7.67,0,0,1,208,63,7,7,0,0,1,202.69,64.84Zm0-4.36a2.08,2.08,0,0,0,1.83-.8,4.51,4.51,0,0,0,.55-2.54V43.85a4.48,4.48,0,0,0-.55-2.56,2.54,2.54,0,0,0-3.66,0,4.48,4.48,0,0,0-.55,2.56V57.14a4.51,4.51,0,0,0,.55,2.54A2.08,2.08,0,0,0,202.69,60.48Z"/><path d="M213.41,64.45V36.66h7.1a7.92,7.92,0,0,1,5.28,1.53,5.6,5.6,0,0,1,1.79,4.5v6a5.6,5.6,0,0,1-1.79,4.5,7.92,7.92,0,0,1-5.28,1.53h-2.34v9.69Zm6.75-13.9a2.58,2.58,0,0,0,2-.71,3.06,3.06,0,0,0,.65-2.14V43.65c0-1.91-.88-2.86-2.65-2.86h-2v9.76Z"/></svg>