<svg width="72" height="23" viewBox="0 0 72 23" fill="none" xmlns="http://www.w3.org/2000/svg">
<g clip-path="url(#clip0_9073_1386)">
<path d="M35.2554 0.406346L30.4978 22.6523H24.7444L29.5038 0.406346H35.2554ZM59.4625 14.7698L62.4908 6.41727L64.2337 14.7698H59.4625ZM65.8822 22.6523H71.2036L66.5586 0.406346H61.6471C60.5426 0.406346 59.6112 1.04934 59.1985 2.03845L50.5646 22.6523H56.6061L57.8059 19.3292H65.1875L65.8822 22.6523ZM50.865 15.389C50.8895 9.51782 42.7478 9.19423 42.8038 6.5715C42.8212 5.77331 43.5812 4.92475 45.2442 4.70787C46.0687 4.59986 48.3402 4.5174 50.9165 5.70347L51.927 0.986247C50.5428 0.483794 48.7616 -1.10858e-06 46.5451 -1.10858e-06C40.8581 -1.10858e-06 36.856 3.02392 36.8222 7.3536C36.7855 10.5562 39.6789 12.3432 41.8586 13.4074C44.1011 14.4973 44.8534 15.1974 44.8451 16.1724C44.829 17.6647 43.0565 18.3235 41.3999 18.3493C38.5081 18.3937 36.8299 17.5666 35.492 16.9445L34.4493 21.818C35.7936 22.4349 38.275 22.9731 40.8478 23C46.8925 23 50.8463 20.0138 50.865 15.389M27.0345 0.406346L17.7125 22.6523H11.6307L7.0433 4.89897C6.76467 3.80534 6.52277 3.40497 5.67578 2.94439C4.29298 2.19383 2.00909 1.49 0 1.0529L0.136509 0.406346H9.92674C11.1747 0.406346 12.2964 1.23725 12.5797 2.67469L15.0024 15.5474L20.9903 0.406346H27.0345Z" fill="#1434CB"/>
</g>
<defs>
<clipPath id="clip0_9073_1386">
<rect width="71.2036" height="23" fill="white"/>
</clipPath>
</defs>
</svg>
